HIERARCHY
ROOT Hips
{
  OFFSET 13.6774 106.653 -34.4427
  CHANNELS 6 Xposition Yposition Zposition Zrotation Xrotation Yrotation
  JOINT ToSpine
  {
    OFFSET -2.69724 7.43032 -0.144315
    CHANNELS 3 Zrotation Xrotation Yrotation
    JOINT Spine
    {
      OFFSET -0.0310711 10.7595 1.96963
      CHANNELS 3 Zrotation Xrotation Yrotation
      JOINT Spine1
      {
        OFFSET 19.9056 3.91189 0.764692
        CHANNELS 3 Zrotation Xrotation Yrotation
        JOINT Neck
        {
          OFFSET 25.9749 7.03908 -0.130764
          CHANNELS 3 Zrotation Xrotation Yrotation
          JOINT Head
          {
            OFFSET 9.52751 0.295786 -0.907742
            CHANNELS 3 Zrotation Xrotation Yrotation
            End Site
            {
              OFFSET 16.4037 0.713936 2.7358
            }
          }
        }
        JOINT LeftShoulder
        {
          OFFSET 17.7449 4.33886 11.7777
          CHANNELS 3 Zrotation Xrotation Yrotation
          JOINT LeftArm
          {
            OFFSET 0.911315 1.27913 9.80584
            CHANNELS 3 Zrotation Xrotation Yrotation
            JOINT LeftForeArm
            {
              OFFSET 28.6126 1.18197 -3.53199
              CHANNELS 3 Zrotation Xrotation Yrotation
              JOINT LeftHand
              {
                OFFSET 27.5088 0.0218783 0.327423
                CHANNELS 3 Zrotation Xrotation Yrotation
                End Site
                {
                  OFFSET 18.6038 -0.000155887 0.382096
                }
              }
            }
          }
        }
        JOINT RightShoulder
        {
          OFFSET 17.1009 2.89543 -12.2328
          CHANNELS 3 Zrotation Xrotation Yrotation
          JOINT RightArm
          {
            OFFSET 1.4228 0.178766 -10.211
            CHANNELS 3 Zrotation Xrotation Yrotation
            JOINT RightForeArm
            {
              OFFSET 28.733 1.87905 2.64907
              CHANNELS 3 Zrotation Xrotation Yrotation
              JOINT RightHand
              {
                OFFSET 27.4588 0.290562 -0.101845
                CHANNELS 3 Zrotation Xrotation Yrotation
                End Site
                {
                  OFFSET 17.8396 -0.255518 -0.000602873
                }
              }
            }
          }
        }
      }
    }
  }
  JOINT LeftUpLeg
  {
    OFFSET -5.61296 -2.22332 -10.2353
    CHANNELS 3 Zrotation Xrotation Yrotation
    JOINT LeftLeg
    {
      OFFSET 2.56703 -44.7417 -7.93097
      CHANNELS 3 Zrotation Xrotation Yrotation
      JOINT LeftFoot
      {
        OFFSET 3.16933 -46.5642 -3.96578
        CHANNELS 3 Zrotation Xrotation Yrotation
        JOINT LeftToeBase
        {
          OFFSET 0.346054 -6.02161 12.8035
          CHANNELS 3 Zrotation Xrotation Yrotation
          End Site
          {
            OFFSET 0.134235 -1.35082 5.13018
          }
        }
      }
    }
  }
  JOINT RightUpLeg
  {
    OFFSET -5.7928 -1.72406 10.6446
    CHANNELS 3 Zrotation Xrotation Yrotation
    JOINT RightLeg
    {
      OFFSET -2.57161 -44.7178 -7.85259
      CHANNELS 3 Zrotation Xrotation Yrotation
      JOINT RightFoot
      {
        OFFSET -3.10148 -46.5936 -4.03391
        CHANNELS 3 Zrotation Xrotation Yrotation
        JOINT RightToeBase
        {
          OFFSET -0.0828122 -6.13587 12.8035
          CHANNELS 3 Zrotation Xrotation Yrotation
          End Site
          {
            OFFSET -0.131328 -1.35082 5.13018
          }
        }
      }
    }
  }
}
MOTION
Frames: 15
Frame Time: 0.03333333333333333
0.0000 93.1000 0.0000 0.1938 -72.1186 -90.7508 -70.9975 -0.1317 88.0400 135.6052 58.0494 -59.1951 -1.9988 19.7623 -4.0150 -162.9238 19.6810 166.8962 -157.9428 58.6217 177.0662 0.5738 -7.1214 -19.8090 -93.5521 29.2221 -154.6970 19.6149 20.6432 -44.2255 13.2807 -0.5582 -1.6386 0.1888 0.8238 16.9176 -93.2838 -37.3545 61.4581 1.8676 -13.7618 15.0970 5.3472 -0.3649 -0.7194 -13.3019 27.2679 72.5057 -23.2515 78.9144 -2.0171 2.5661 -0.3825 -1.1812 -8.8856 -42.5822 18.1670 -8.0640 -33.6349 112.5127 159.2788 74.5256 -142.1891 -9.9635 -2.4423 0.9310 13.4337 -37.1216 -17.5549 
0.0000 93.1000 0.0000 -12.4952 -73.1035 -101.6203 -70.9811 -0.1809 87.9859 135.6813 58.5813 -55.9409 -2.0712 19.8132 -3.0270 -157.8115 17.0017 166.6700 -152.4961 56.0109 174.6706 0.7876 -4.4972 -17.7886 -99.3600 23.7589 -137.1636 14.6101 20.6952 -32.2415 12.7808 -0.4766 0.8189 0.3621 3.1991 13.3000 -91.1352 -34.5427 56.9506 0.9162 -19.0025 12.3393 2.7843 -0.5173 -1.0149 -21.8188 35.2225 72.9333 -12.4684 69.5297 -14.0019 0.6362 -1.2395 -1.0327 -7.4270 -35.9907 22.4407 -3.9173 -35.1280 114.5356 153.9516 78.5906 -140.5932 -9.6681 -3.2036 0.8475 13.0589 -31.7075 -19.5674 
0.0000 93.1000 0.0000 -22.1296 -75.1462 -111.9558 -70.9604 -0.2809 87.9446 136.2393 59.1606 -54.9369 -0.3024 19.9463 -2.3586 -154.7217 15.4092 167.4587 -149.9261 54.0732 172.5167 1.4099 -2.6933 -16.9728 -98.5170 20.8986 -120.4788 9.1811 24.5284 -19.5319 11.0766 -0.9646 2.5344 0.3896 5.1866 11.5725 -88.8173 -32.9588 53.0729 0.3795 -17.6555 12.5660 1.8609 -1.2674 -1.2149 -37.0463 40.1580 77.2748 -5.9669 54.1232 -18.7532 -3.6280 -1.6915 0.1116 -6.9364 -20.9756 25.6769 -6.3094 -37.9084 111.9754 118.0687 85.3172 -107.0897 -10.0081 -4.8180 0.6910 11.8142 -21.5898 -19.7587 
0.0000 93.1000 0.0000 -27.7667 -75.4476 -120.0355 -70.9983 -0.1706 87.9652 135.0754 59.7501 -50.7691 4.2496 19.0811 -1.2869 -153.4329 16.0721 169.4729 -145.9930 53.5711 169.6931 1.4233 -1.7655 -15.9935 -101.0254 22.4955 -103.1033 0.4957 34.0430 -8.5396 11.1594 -0.7337 2.5291 0.2270 5.9811 11.8059 -87.3785 -30.0349 53.8068 -0.9058 -15.2471 11.0131 2.6736 -1.1757 -1.9605 -48.8415 41.0511 78.9131 -3.8407 39.2777 -16.4394 -6.8862 3.7098 0.9671 -7.1143 -1.5675 26.0248 -12.6645 -39.9843 107.6014 20.9560 80.8644 -9.0392 -8.9038 -3.2379 0.4126 7.8017 -7.6725 -18.6758 
0.0000 93.1000 0.0000 -20.2633 -73.9951 -112.1188 -70.9828 -0.1014 87.9544 132.4896 60.4842 -46.0416 6.3799 17.6538 0.9258 -153.6866 16.9564 171.6611 -142.0236 52.8667 166.0102 1.3656 -0.4107 -16.9630 -103.1543 26.4950 -87.3188 -3.1750 34.4308 -1.6795 10.9307 -0.3340 2.9555 0.0381 4.4526 13.7520 -84.0284 -28.3556 57.6341 -2.4881 -11.5062 10.9194 2.5461 -0.7738 -1.8569 -45.9250 40.8026 74.8567 -2.8093 36.9735 -13.2884 -4.9656 7.9208 0.6513 -6.7137 1.7109 22.7193 -17.6255 -42.1080 103.9109 5.6076 63.4625 5.2253 -6.0467 -1.5796 -0.2192 3.4119 8.8937 -16.3845 
0.0000 93.1000 0.0000 -10.9688 -74.0018 -103.2566 -70.9324 -0.0688 87.9520 132.1310 60.6958 -45.4570 8.5604 17.3258 2.9214 -154.5798 17.8142 171.4095 -138.3991 52.6648 164.4293 1.1412 -0.7824 -18.5589 -103.6120 29.5443 -73.5652 -6.9090 29.4498 3.3904 10.6811 -0.0368 3.4702 -0.0611 2.2441 14.8420 -83.0357 -27.3530 64.2852 -2.9417 -8.5474 12.1356 1.5420 -0.3941 -1.4348 -33.9323 38.9027 70.7835 -5.6624 52.9554 -9.5206 -1.7917 7.3034 -0.2466 -6.4189 -7.6424 20.7898 -23.9829 -42.2736 102.8254 2.2589 51.1370 9.2073 -3.6139 1.9163 -0.7090 -1.8310 18.9639 -9.4600 
0.0000 93.1000 0.0000 -8.6375 -74.8351 -101.7908 -70.9178 -0.0595 87.9756 136.2922 60.4699 -50.0818 11.6068 18.2079 2.0965 -156.5632 18.7858 170.3803 -135.9880 52.8058 164.2871 1.2244 -0.7360 -19.2437 -105.0681 29.2457 -66.4296 -10.4838 33.3308 8.9973 9.2292 0.0949 3.6988 -0.0160 0.1201 16.7046 -81.5716 -26.2565 74.1713 -1.8143 -6.2843 14.6683 1.0781 -0.2121 -0.9538 -24.3079 36.9317 68.8853 -11.0675 71.5729 -5.0808 2.5561 7.5174 -1.1995 -6.2201 -17.4399 18.7742 -27.4688 -41.8804 101.1880 3.7457 52.3153 10.7788 -2.2443 3.0259 -0.9248 -1.4081 17.7840 -8.1832 
0.0000 93.1000 0.0000 -3.9994 -76.6935 -95.6354 -70.9790 -0.1549 87.9915 141.7216 59.7422 -55.1389 14.0029 18.5346 2.7985 -157.2463 19.4315 170.7095 -136.0944 53.6188 165.0254 1.7893 -1.2144 -21.2727 -106.9302 28.2943 -61.0133 -10.7906 41.5033 9.9494 7.7538 -0.4357 4.1677 -0.1027 -0.9221 18.9603 -82.1893 -24.0697 85.2433 -1.5712 -5.1718 16.3181 2.8592 -1.0145 -0.4051 -13.6437 33.3268 64.3118 -115.0335 84.8184 99.3793 4.6677 7.5112 -0.9061 -6.0968 -22.4680 17.1611 -31.2336 -41.0591 91.4015 4.6100 60.8413 5.5976 -3.3340 -0.9816 -0.9427 5.0133 3.0083 -16.5624 
0.0000 93.1000 0.0000 -3.2024 -78.0112 -91.7035 -71.0333 -0.0965 87.9990 146.3113 59.2816 -56.0601 15.6634 19.4144 3.8408 -157.6853 20.1543 170.7256 -134.9966 54.5328 167.4796 1.4132 -2.6167 -21.2291 -109.3359 27.8125 -55.9645 -10.6680 45.9692 11.1492 8.6170 -0.0919 4.1663 -0.3657 -0.7012 22.0886 -87.6563 -20.4035 96.7861 -0.5981 -10.4122 14.0397 4.1545 -0.9067 -0.9685 -5.7837 29.0383 64.6712 -165.3065 70.3675 153.2473 6.3853 6.6212 -1.5024 -6.7152 -24.3222 12.7907 -33.2183 -38.0106 84.4828 6.8102 66.0115 2.4980 -5.6202 -3.8094 -0.2830 8.3648 -10.8797 -17.8956 
0.0000 93.1000 0.0000 -7.0648 -76.6839 -93.4744 -71.0673 -0.1060 87.9731 148.3458 58.9359 -55.6887 16.8802 19.8612 2.9351 -159.1527 20.3692 172.6090 -132.7613 54.6990 166.2860 1.2930 -3.5317 -23.4677 -111.3115 32.1274 -54.4264 -10.9398 50.8444 10.7539 7.5167 -0.0874 3.8161 -0.6251 0.6757 25.7094 -97.7305 -17.1476 107.5518 -0.6551 -16.6219 10.1191 6.4814 -0.9614 -0.7443 -0.6593 23.3320 71.7219 -169.6528 59.5691 159.5103 7.1898 5.4565 -1.8327 -7.2768 -26.3044 11.6656 -28.9272 -33.0939 82.7887 11.3933 73.1286 0.6213 -6.4070 -3.5535 0.1366 10.8697 -18.6666 -20.4433 
0.0000 93.1000 0.0000 -10.0022 -73.5854 -93.8187 -71.1229 -0.0909 87.9491 152.1765 57.7916 -56.2408 17.1776 19.9696 3.7815 -160.0096 20.7519 171.9595 -131.5589 55.3752 166.1390 1.1323 -4.6314 -24.6154 -113.9861 40.0442 -55.1481 -13.9585 59.1925 13.8402 6.9414 -0.0910 3.2889 -0.7072 2.0218 25.7512 -103.7908 -20.9988 117.1531 -0.4502 -13.6387 10.5040 9.4141 -0.8769 -0.4124 0.2550 16.8198 85.0858 -169.5557 62.0578 159.2405 7.4118 5.1649 -1.8817 -6.7920 -26.3462 8.8775 -28.7132 -28.6548 76.7384 14.1624 76.6650 -1.2290 -6.0764 -5.5155 0.1301 9.0033 -16.6511 -19.7048 
0.0000 93.1000 0.0000 -9.7782 -71.0568 -93.6116 -71.1412 0.0008 87.9273 155.2356 57.2457 -59.5467 16.5179 20.9414 3.4328 -159.8516 20.7485 169.8559 -130.5222 54.9864 164.7619 0.7798 -4.7350 -24.8833 -112.9471 47.4466 -60.4888 -18.7581 64.5211 17.8203 7.1312 0.2818 2.4030 -0.7234 3.1049 23.7264 -101.2993 -25.3818 124.9242 -0.1824 -4.6910 14.1523 9.1347 -0.1312 1.3117 -2.2315 8.8250 99.1810 -158.4586 75.9085 146.3297 5.8965 7.3904 -1.8784 -6.5116 -25.1477 6.5078 -26.6180 -26.7038 70.7377 15.0016 77.1110 -0.9377 -7.0642 -4.9794 0.3395 7.0579 -8.8965 -15.1575 
0.0000 93.1000 0.0000 -14.8085 -68.5886 -99.3469 -71.0814 -0.1699 88.0189 155.1134 57.9088 -61.5404 14.9394 23.3208 2.1153 -158.8216 21.0718 171.5756 -132.6226 55.1892 166.0997 1.5101 -4.9009 -26.1567 -106.2740 55.3231 -68.3174 -20.8291 63.0448 15.9572 8.8735 -0.6951 1.9041 -0.7958 3.9144 22.3231 -87.6828 -21.8614 134.8091 -0.5686 1.4727 19.0203 6.8093 -0.7122 2.8861 -7.8267 0.6255 109.5264 -27.8694 79.7075 13.0494 4.1950 8.2278 -0.9602 -6.2171 -20.9098 5.9184 -20.5792 -26.8974 70.6148 19.1150 79.7300 -6.1873 -5.9468 -3.7482 -0.2930 -3.5490 11.2275 -2.8464 
0.0000 93.1000 0.0000 -23.0017 -68.7528 -109.3587 -71.0643 -0.0783 88.0628 155.4305 57.9146 -63.3738 15.6224 24.9189 0.6120 -157.7320 20.7377 171.4416 -132.9764 55.2159 166.8362 0.8606 -4.6680 -26.4928 -100.4074 58.4874 -75.5562 -19.9841 57.1378 13.0882 12.6268 -0.2308 1.1349 -0.9755 5.1645 20.8971 -77.6517 -22.5412 140.9717 5.9077 -6.1514 26.4752 2.0189 0.0648 4.2158 -15.0783 -5.8734 110.3548 -7.9025 65.9761 -5.9473 4.4251 9.0598 -1.5698 -5.0519 -15.8262 7.3653 -18.5270 -22.6888 73.3074 18.4857 78.9715 -7.1146 -6.2833 -2.0316 0.0372 -7.9863 18.4717 2.7168 
0.0000 93.1000 0.0000 -32.7863 -69.8023 -115.7281 -71.0925 -0.0751 88.0559 155.2413 58.7803 -63.4380 15.5556 25.5220 -0.5465 -155.6458 19.0403 171.5786 -133.5488 54.7966 167.2358 0.7143 -4.9578 -27.1352 -100.7401 59.4161 -78.7097 -18.0517 56.2533 12.9165 15.9977 -0.1053 2.1154 -0.7749 5.9730 21.4821 -73.1990 -28.1157 144.7709 15.2937 -18.2879 36.5649 -2.0585 0.1672 5.3339 -20.6567 -8.8759 104.2206 -6.4052 62.0172 -5.8682 5.2349 10.0119 -1.8937 -5.0881 -13.6890 9.2101 -21.3072 -16.0363 78.7369 9.7609 74.6910 -6.7412 -6.2723 -0.8123 0.1009 4.3397 7.2824 -18.5246 
